<svg version="1.1" xmlns="http://www.w3.org/2000/svg" xmlns:xlink="http://www.w3.org/1999/xlink" viewBox="0 0 172 172"><g fill="none" fill-rule="nonzero" stroke="none" stroke-width="1" stroke-linecap="butt" stroke-linejoin="miter" stroke-miterlimit="10" stroke-dasharray="" stroke-dashoffset="0" font-family="none" font-weight="none" font-size="none" text-anchor="none" style="mix-blend-mode: normal"><path d="M0,172v-172h172v172z" fill="none"></path><path d="M86,146.2c-33.24754,0 -60.2,-26.95246 -60.2,-60.2v0c0,-33.24754 26.95246,-60.2 60.2,-60.2h0c33.24754,0 60.2,26.95246 60.2,60.2v0c0,33.24754 -26.95246,60.2 -60.2,60.2z" fill="#ffffff"></path><g fill="#000000"><path d="M59.01833,67.20321c0.38091,-0.18506 0.7985,-0.28227 1.22198,-0.28446h51.51937c0.42348,0.00217 0.84107,0.09936 1.22198,0.28441l-26.98167,23.26156zM114.62187,69.78094c-0.00224,-0.42492 -0.10016,-0.84388 -0.2865,-1.22577l-20.23443,17.44466l20.23441,17.44503c0.18636,-0.38189 0.28429,-0.80087 0.28652,-1.2258zM92.64001,87.25936l-6.01717,5.18759c-0.35785,0.30871 -0.88783,0.30871 -1.24568,0l-6.01717,-5.18759l-20.34155,17.53748c0.38088,0.18501 0.79843,0.2822 1.22187,0.28441h51.51937c0.42346,-0.0022 0.84102,-0.09939 1.22193,-0.28441zM57.66462,68.55517c-0.18632,0.3819 -0.28424,0.80085 -0.2865,1.22577v32.43813c0.00226,0.42497 0.10022,0.84397 0.28662,1.22588l20.23431,-17.44512z"></path></g></g></svg>