<svg version="1.1" xmlns="http://www.w3.org/2000/svg" xmlns:xlink="http://www.w3.org/1999/xlink" viewBox="0 0 172 172"><g fill="none" fill-rule="nonzero" stroke="none" stroke-width="1" stroke-linecap="butt" stroke-linejoin="miter" stroke-miterlimit="10" stroke-dasharray="" stroke-dashoffset="0" font-family="none" font-weight="none" font-size="none" text-anchor="none" style="mix-blend-mode: normal"><path d="M0,172v-172h172v172z" fill="none"></path><path d="M86,146.2c-33.24754,0 -60.2,-26.95246 -60.2,-60.2v0c0,-33.24754 26.95246,-60.2 60.2,-60.2h0c33.24754,0 60.2,26.95246 60.2,60.2v0c0,33.24754 -26.95246,60.2 -60.2,60.2z" fill="#ffffff"></path><g fill="#000000"><path d="M106.30729,118.24905c-0.35689,0 -0.71378,-0.0688 -1.04917,-0.20209c-5.30604,-2.12844 -18.94094,-8.37615 -30.93759,-20.3685c-11.99665,-11.99235 -18.24006,-25.62724 -20.3685,-30.93329c-0.42139,-1.05347 -0.1677,-2.25743 0.64498,-3.07011l9.07703,-9.07703c0.54608,-0.55038 1.26846,-0.84708 2.03384,-0.84708c0.76538,0 1.48776,0.29669 2.02954,0.83848l10.37129,10.37129c1.11797,1.11797 1.11797,2.93681 0,4.05478l-6.98729,6.98729l0.82558,1.43186c0.1505,0.25799 3.70219,6.35951 9.98001,12.63733c6.27781,6.27781 12.38363,9.83381 12.63733,9.98001l1.43186,0.82558l6.98299,-6.98729c0.54178,-0.54178 1.25986,-0.83848 2.02954,-0.83848c0.76968,0 1.48776,0.29669 2.02954,0.83848l10.37129,10.37129c1.11797,1.11797 1.11797,2.93681 0,4.05478l-9.07703,9.07703c-0.55038,0.55468 -1.26846,0.85567 -2.02524,0.85567z"></path><path d="M65.70788,55.90089c0.1376,0 0.33539,0.0344 0.50739,0.21069l10.37129,10.37129c0.27949,0.27949 0.27949,0.73528 0,1.01477l-5.81773,5.81773l-2.33483,2.33483l1.65115,2.85942c0.1548,0.26229 3.84409,6.60461 10.324,13.08021c6.47561,6.47561 12.81792,10.1692 13.08451,10.324l2.85942,1.65115l2.33483,-2.33483l5.81773,-5.81773c0.17199,-0.17199 0.37409,-0.21069 0.50739,-0.21069c0.1376,0 0.33539,0.0344 0.50739,0.21069l10.37129,10.37129c0.27949,0.27949 0.27949,0.73528 0,1.01477l-9.07703,9.07703c-0.1462,0.1462 -0.32679,0.22359 -0.50739,0.22359c-0.0817,0 -0.1634,-0.0172 -0.24509,-0.0473c-5.18135,-2.08114 -18.50235,-8.18266 -30.21521,-19.89551c-11.71715,-11.71285 -17.81867,-25.03386 -19.89981,-30.21951c-0.1032,-0.25799 -0.0387,-0.53748 0.17199,-0.74818l9.07703,-9.07703c0.17629,-0.17629 0.37409,-0.21069 0.51168,-0.21069M65.70788,51.60101c-1.28566,0 -2.56702,0.49019 -3.5474,1.47056l-9.08133,9.07703c-1.42326,1.42326 -1.87044,3.5259 -1.12227,5.39204c2.39933,5.98112 8.74594,19.55582 20.84579,31.65567c12.09984,12.09984 25.67454,18.44646 31.65567,20.84579c0.60198,0.24079 1.22976,0.35689 1.84895,0.35689c1.30286,0 2.57992,-0.51598 3.5431,-1.47916l9.07703,-9.07703c1.96074,-1.96074 1.96074,-5.13835 0,-7.09479l-10.37129,-10.37129c-0.98037,-0.98467 -2.26173,-1.47486 -3.5474,-1.47486c-1.28566,0 -2.56702,0.49019 -3.5474,1.47056l-5.81773,5.81773c0,0 -6.04562,-3.4915 -12.19444,-9.64032c-6.14882,-6.14882 -9.64032,-12.19444 -9.64032,-12.19444l5.81773,-5.81773c1.96074,-1.96074 1.96074,-5.13835 0,-7.09479l-10.37129,-10.37129c-0.98037,-0.98037 -2.26603,-1.47056 -3.5474,-1.47056z"></path></g></g></svg>