<svg version="1.1" xmlns="http://www.w3.org/2000/svg" xmlns:xlink="http://www.w3.org/1999/xlink" viewBox="0 0 172 172"><g fill="none" fill-rule="nonzero" stroke="none" stroke-width="1" stroke-linecap="butt" stroke-linejoin="miter" stroke-miterlimit="10" stroke-dasharray="" stroke-dashoffset="0" font-family="none" font-weight="none" font-size="none" text-anchor="none" style="mix-blend-mode: normal"><path d="M0,172v-172h172v172z" fill="none"></path><path d="M86,146.2c-33.24754,0 -60.2,-26.95246 -60.2,-60.2v0c0,-33.24754 26.95246,-60.2 60.2,-60.2h0c33.24754,0 60.2,26.95246 60.2,60.2v0c0,33.24754 -26.95246,60.2 -60.2,60.2z" fill="#ffffff"></path><g fill="#000000"><path d="M86,54.3692c-11.22649,0 -20.3648,9.13831 -20.3648,20.3648c0,10.81383 18.54509,37.75642 19.33065,38.89995c0.23865,0.34306 0.61651,0.55685 1.03415,0.55685c0.41764,0 0.7955,-0.21379 1.03415,-0.55685c0.78556,-1.14353 19.33065,-28.08612 19.33065,-38.89995c0,-11.22649 -9.13831,-20.3648 -20.3648,-20.3648zM86,64.5516c5.62319,0 10.1824,4.55921 10.1824,10.1824c0,5.62319 -4.55921,10.1824 -10.1824,10.1824c-5.62319,0 -10.1824,-4.55921 -10.1824,-10.1824c0,-5.62319 4.55921,-10.1824 10.1824,-10.1824zM86,69.6428c-2.81408,0 -5.0912,2.27712 -5.0912,5.0912c0,2.81408 2.27712,5.0912 5.0912,5.0912c2.81408,0 5.0912,-2.27712 5.0912,-5.0912c0,-0.71595 -0.13424,-1.37224 -0.39775,-1.98875c-0.34803,0.4425 -0.89991,0.71595 -1.51145,0.71595c-1.05404,0 -1.9092,-0.85516 -1.9092,-1.9092c0,-0.61154 0.27345,-1.16342 0.71595,-1.51145c-0.61651,-0.26351 -1.2728,-0.39775 -1.98875,-0.39775z"></path></g></g></svg>